<mxfile host="app.diagrams.net" agent="Mozilla/5.0 (Macintosh; Intel Mac OS X 10_15_7) AppleWebKit/537.36 (KHTML, like Gecko) Chrome/134.0.0.0 Safari/537.36" version="26.1.1">
  <diagram name="Page-1" id="BYTXbC25DRY8ZI2Z7DPX">
    <mxGraphModel dx="1026" dy="553" grid="1" gridSize="10" guides="1" tooltips="1" connect="1" arrows="1" fold="1" page="1" pageScale="1" pageWidth="827" pageHeight="1169" math="0" shadow="0">
      <root>
        <mxCell id="0" />
        <mxCell id="1" parent="0" />
        <mxCell id="M__pvSeYkyBA2umGWvLx-5" value="&lt;div&gt;CST User&lt;/div&gt;" style="rounded=1;whiteSpace=wrap;html=1;" parent="1" vertex="1">
          <mxGeometry x="100" y="300" width="120" height="60" as="geometry" />
        </mxCell>
        <mxCell id="M__pvSeYkyBA2umGWvLx-6" value="" style="rounded=1;whiteSpace=wrap;html=1;" parent="1" vertex="1">
          <mxGeometry x="324" y="290" width="180" height="60" as="geometry" />
        </mxCell>
        <mxCell id="M__pvSeYkyBA2umGWvLx-7" value="iomp-customer-service" style="text;html=1;align=center;verticalAlign=middle;whiteSpace=wrap;rounded=0;" parent="1" vertex="1">
          <mxGeometry x="350" y="307.5" width="130" height="22.5" as="geometry" />
        </mxCell>
        <mxCell id="M__pvSeYkyBA2umGWvLx-13" value="" style="shape=flexArrow;endArrow=classic;startArrow=classic;html=1;rounded=0;" parent="1" edge="1">
          <mxGeometry width="100" height="100" relative="1" as="geometry">
            <mxPoint x="220" y="320" as="sourcePoint" />
            <mxPoint x="320" y="320" as="targetPoint" />
          </mxGeometry>
        </mxCell>
        <mxCell id="M__pvSeYkyBA2umGWvLx-25" value="DB" style="shape=cylinder3;whiteSpace=wrap;html=1;boundedLbl=1;backgroundOutline=1;size=15;" parent="1" vertex="1">
          <mxGeometry x="430" y="420" width="60" height="60" as="geometry" />
        </mxCell>
        <mxCell id="eWnXWsVsrv5pQYVKBkyM-1" value="&lt;pre style=&quot;margin-top: 0px;&quot;&gt;&lt;pre&gt;&lt;pre&gt;&lt;pre&gt;&lt;span dir=&quot;ltr&quot; class=&quot;ui-provider a b c d e f g h i j k l m n o p q r s t u v w x y z ab ac ae af ag ah ai aj ak&quot;&gt;&lt;p&gt;&lt;font style=&quot;font-size: 9px;&quot;&gt;&lt;br&gt;&lt;/font&gt;&lt;/p&gt;&lt;p&gt;&lt;font style=&quot;&quot;&gt;&lt;span style=&quot;font-size: 10px;&quot;&gt;     &lt;/span&gt;&lt;font style=&quot;font-size: 11px;&quot;&gt; &lt;b&gt;GET&lt;/b&gt;&lt;font color=&quot;#0f0f0f&quot;&gt; &lt;/font&gt;&lt;font style=&quot;&quot; face=&quot;Verdana&quot;&gt;&lt;span style=&quot;background-color: rgb(255, 255, 255); white-space: normal;&quot;&gt;&lt;font color=&quot;#0f0f0f&quot;&gt;/projects/summary&lt;/font&gt;&lt;/span&gt;&lt;/font&gt;&lt;/font&gt;&lt;/font&gt;&lt;/p&gt;&lt;p&gt;&lt;/p&gt;&lt;/span&gt;&lt;/pre&gt;&lt;/pre&gt;&lt;/pre&gt;&lt;/pre&gt;" style="text;html=1;whiteSpace=wrap;overflow=hidden;rounded=0;align=left;" parent="1" vertex="1">
          <mxGeometry x="80" y="210" width="360" height="70" as="geometry" />
        </mxCell>
        <mxCell id="0USdb_t3DaOtPhE5vXOL-3" value="" style="shape=flexArrow;endArrow=classic;startArrow=classic;html=1;rounded=0;entryX=0.75;entryY=1;entryDx=0;entryDy=0;exitX=0.5;exitY=0;exitDx=0;exitDy=0;exitPerimeter=0;" parent="1" source="M__pvSeYkyBA2umGWvLx-25" target="M__pvSeYkyBA2umGWvLx-6" edge="1">
          <mxGeometry width="100" height="100" relative="1" as="geometry">
            <mxPoint x="450" y="390" as="sourcePoint" />
            <mxPoint x="550" y="290" as="targetPoint" />
          </mxGeometry>
        </mxCell>
        <mxCell id="m3tlAL_hqEG2WaRdSzin-3" value="&lt;blockquote style=&quot;text-align: left;&quot;&gt;&lt;pre&gt;{&lt;br&gt;&amp;nbsp; &amp;nbsp;&quot;data&quot;:[&lt;br&gt;&amp;nbsp; &amp;nbsp; &amp;nbsp; {&lt;br&gt;&amp;nbsp; &amp;nbsp; &amp;nbsp; &amp;nbsp; &amp;nbsp;&quot;name&quot;:&quot;Total Customers&quot;,&lt;br&gt;&amp;nbsp; &amp;nbsp; &amp;nbsp; &amp;nbsp; &amp;nbsp;&quot;value&quot;:30&lt;br&gt;&amp;nbsp; &amp;nbsp; &amp;nbsp; },&lt;br&gt;&amp;nbsp; &amp;nbsp; &amp;nbsp; {&lt;br&gt;&amp;nbsp; &amp;nbsp; &amp;nbsp; &amp;nbsp; &amp;nbsp;&quot;name&quot;:&quot;Customer Accounts&quot;,&lt;br&gt;&amp;nbsp; &amp;nbsp; &amp;nbsp; &amp;nbsp; &amp;nbsp;&quot;value&quot;:50&lt;br&gt;&amp;nbsp; &amp;nbsp; &amp;nbsp; }&lt;br&gt;&amp;nbsp; &amp;nbsp;],&lt;br&gt;&amp;nbsp; &amp;nbsp;&quot;totalRecords&quot;:2,&lt;br&gt;&amp;nbsp; &amp;nbsp;&quot;key&quot;:&quot;d6c79e1a-1565-4750-aecd-c5f124a5e994&quot;,&lt;br&gt;&amp;nbsp; &amp;nbsp;&quot;timestamp&quot;:1685207036063&lt;br&gt;}&lt;/pre&gt;&lt;/blockquote&gt;" style="text;html=1;align=center;verticalAlign=middle;resizable=0;points=[];autosize=1;strokeColor=none;fillColor=none;" parent="1" vertex="1">
          <mxGeometry x="35" y="350" width="450" height="250" as="geometry" />
        </mxCell>
      </root>
    </mxGraphModel>
  </diagram>
</mxfile>
